<?xml version="1.0" encoding="UTF-8" standalone="no"?>
<!DOCTYPE svg PUBLIC "-//W3C//DTD SVG 1.1//EN"
 "http://www.w3.org/Graphics/SVG/1.1/DTD/svg11.dtd">
<!-- Generated by graphviz version 12.2.0 (20241103.1931)
 -->
<!-- Title: finite_state_machine Pages: 1 -->
<svg width="442pt" height="116pt"
 viewBox="0.00 0.00 441.50 116.00" xmlns="http://www.w3.org/2000/svg" xmlns:xlink="http://www.w3.org/1999/xlink">
<g id="graph0" class="graph" transform="scale(1 1) rotate(0) translate(4 112)">
<title>finite_state_machine</title>
<polygon fill="white" stroke="none" points="-4,4 -4,-112 437.5,-112 437.5,4 -4,4"/>
<!-- nfaFromGrammar: -->
<g id="node1" class="node">
<title>nfaFromGrammar:</title>
<text text-anchor="middle" x="56.38" y="-13.72" font-family="Arial" font-size="12.00">nfaFromGrammar:</text>
</g>
<!-- START -->
<g id="node2" class="node">
<title>START</title>
<ellipse fill="#e5e5e5" stroke="black" cx="56.38" cy="-56" rx="1.8" ry="1.8"/>
</g>
<!-- 1 -->
<g id="node5" class="node">
<title>1</title>
<ellipse fill="#e5e5e5" stroke="black" cx="167.75" cy="-56" rx="18" ry="18"/>
<text text-anchor="middle" x="167.75" y="-52.5" font-family="Arial" font-size="10.00">1</text>
</g>
<!-- START&#45;&gt;1 -->
<g id="edge1" class="edge">
<title>START&#45;&gt;1</title>
<path fill="none" stroke="black" d="M58.6,-56C66.32,-56 108.7,-56 138.06,-56"/>
<polygon fill="black" stroke="black" points="137.82,-59.5 147.81,-56 137.81,-52.5 137.82,-59.5"/>
</g>
<!-- 2 -->
<g id="node3" class="node">
<title>2</title>
<ellipse fill="#e5e5e5" stroke="black" cx="249" cy="-56" rx="18" ry="18"/>
<ellipse fill="none" stroke="black" cx="249" cy="-56" rx="22" ry="22"/>
<text text-anchor="middle" x="249" y="-52.5" font-family="Arial" font-size="10.00">2</text>
</g>
<!-- 2&#45;&gt;2 -->
<g id="edge5" class="edge">
<title>2&#45;&gt;2</title>
<path fill="none" stroke="black" d="M241.2,-76.99C240.24,-87.09 242.84,-96 249,-96 252.66,-96 255.06,-92.86 256.21,-88.19"/>
<polygon fill="black" stroke="black" points="259.69,-88.67 256.72,-78.5 252.7,-88.3 259.69,-88.67"/>
<text text-anchor="middle" x="249" y="-98.5" font-family="Arial" font-size="10.00">a</text>
</g>
<!-- 2&#45;&gt;1 -->
<g id="edge4" class="edge">
<title>2&#45;&gt;1</title>
<path fill="none" stroke="black" d="M229.81,-44.46C221.93,-40.77 212.53,-38.09 203.75,-40 200.67,-40.67 197.54,-41.64 194.48,-42.76"/>
<polygon fill="black" stroke="black" points="193.1,-39.55 185.32,-46.74 195.89,-45.97 193.1,-39.55"/>
<text text-anchor="middle" x="206.38" y="-42.5" font-family="Arial" font-size="10.00">b</text>
</g>
<!-- 3 -->
<g id="node6" class="node">
<title>3</title>
<ellipse fill="#e5e5e5" stroke="black" cx="330.25" cy="-56" rx="18" ry="18"/>
<text text-anchor="middle" x="330.25" y="-52.5" font-family="Arial" font-size="10.00">3</text>
</g>
<!-- 2&#45;&gt;3 -->
<g id="edge6" class="edge">
<title>2&#45;&gt;3</title>
<path fill="none" stroke="black" d="M271.24,-56C280.3,-56 291.01,-56 300.75,-56"/>
<polygon fill="black" stroke="black" points="300.45,-59.5 310.45,-56 300.45,-52.5 300.45,-59.5"/>
<text text-anchor="middle" x="291.62" y="-58.5" font-family="Arial" font-size="10.00">b</text>
</g>
<!-- 4 -->
<g id="node4" class="node">
<title>4</title>
<ellipse fill="#e5e5e5" stroke="black" cx="411.5" cy="-56" rx="18" ry="18"/>
<ellipse fill="none" stroke="black" cx="411.5" cy="-56" rx="22" ry="22"/>
<text text-anchor="middle" x="411.5" y="-52.5" font-family="Arial" font-size="10.00">4</text>
</g>
<!-- 4&#45;&gt;4 -->
<g id="edge9" class="edge">
<title>4&#45;&gt;4</title>
<path fill="none" stroke="black" d="M403.7,-76.99C402.74,-87.09 405.34,-96 411.5,-96 415.16,-96 417.56,-92.86 418.71,-88.19"/>
<polygon fill="black" stroke="black" points="422.19,-88.67 419.22,-78.5 415.2,-88.3 422.19,-88.67"/>
<text text-anchor="middle" x="411.5" y="-98.5" font-family="Arial" font-size="10.00">a, b</text>
</g>
<!-- 1&#45;&gt;2 -->
<g id="edge3" class="edge">
<title>1&#45;&gt;2</title>
<path fill="none" stroke="black" d="M185.95,-56C194.52,-56 205.18,-56 215.23,-56"/>
<polygon fill="black" stroke="black" points="215.08,-59.5 225.08,-56 215.08,-52.5 215.08,-59.5"/>
<text text-anchor="middle" x="206.38" y="-58.5" font-family="Arial" font-size="10.00">a</text>
</g>
<!-- 1&#45;&gt;1 -->
<g id="edge2" class="edge">
<title>1&#45;&gt;1</title>
<path fill="none" stroke="black" d="M161.28,-73.04C159.96,-82.86 162.12,-92 167.75,-92 171.01,-92 173.1,-88.94 174.03,-84.47"/>
<polygon fill="black" stroke="black" points="177.53,-84.61 174.19,-74.55 170.53,-84.49 177.53,-84.61"/>
<text text-anchor="middle" x="167.75" y="-94.5" font-family="Arial" font-size="10.00">b</text>
</g>
<!-- 3&#45;&gt;2 -->
<g id="edge7" class="edge">
<title>3&#45;&gt;2</title>
<path fill="none" stroke="black" d="M314.07,-47.34C308.09,-44.4 301.04,-41.48 294.25,-40 289.17,-38.89 283.89,-39.33 278.81,-40.6"/>
<polygon fill="black" stroke="black" points="277.82,-37.24 269.62,-43.94 280.21,-43.81 277.82,-37.24"/>
<text text-anchor="middle" x="291.62" y="-42.5" font-family="Arial" font-size="10.00">a</text>
</g>
<!-- 3&#45;&gt;4 -->
<g id="edge8" class="edge">
<title>3&#45;&gt;4</title>
<path fill="none" stroke="black" d="M348.45,-56C357.02,-56 367.68,-56 377.73,-56"/>
<polygon fill="black" stroke="black" points="377.58,-59.5 387.58,-56 377.58,-52.5 377.58,-59.5"/>
<text text-anchor="middle" x="368.88" y="-58.5" font-family="Arial" font-size="10.00">b</text>
</g>
</g>
</svg>
