<?xml version="1.0" encoding="UTF-8" standalone="no"?>
<!DOCTYPE svg PUBLIC "-//W3C//DTD SVG 1.1//EN"
 "http://www.w3.org/Graphics/SVG/1.1/DTD/svg11.dtd">
<!-- Generated by graphviz version 12.2.0 (20241103.1931)
 -->
<!-- Title: finite_state_machine Pages: 1 -->
<svg width="298pt" height="242pt"
 viewBox="0.00 0.00 297.50 242.00" xmlns="http://www.w3.org/2000/svg" xmlns:xlink="http://www.w3.org/1999/xlink">
<g id="graph0" class="graph" transform="scale(1 1) rotate(0) translate(4 238)">
<title>finite_state_machine</title>
<polygon fill="white" stroke="none" points="-4,4 -4,-238 293.5,-238 293.5,4 -4,4"/>
<!-- nfa: -->
<g id="node1" class="node">
<title>nfa:</title>
<text text-anchor="middle" x="27" y="-59.73" font-family="Arial" font-size="12.00">nfa:</text>
</g>
<!-- START -->
<g id="node2" class="node">
<title>START</title>
<ellipse fill="#e5e5e5" stroke="black" cx="27" cy="-102" rx="1.8" ry="1.8"/>
</g>
<!-- S -->
<g id="node4" class="node">
<title>S</title>
<ellipse fill="#e5e5e5" stroke="black" cx="109" cy="-102" rx="18" ry="18"/>
<text text-anchor="middle" x="109" y="-98.5" font-family="Arial" font-size="10.00">S</text>
</g>
<!-- START&#45;&gt;S -->
<g id="edge1" class="edge">
<title>START&#45;&gt;S</title>
<path fill="none" stroke="black" d="M29.13,-102C34.62,-102 59.08,-102 79.32,-102"/>
<polygon fill="black" stroke="black" points="79.06,-105.5 89.06,-102 79.06,-98.5 79.06,-105.5"/>
</g>
<!-- R -->
<g id="node3" class="node">
<title>R</title>
<ellipse fill="#e5e5e5" stroke="black" cx="267.5" cy="-102" rx="18" ry="18"/>
<ellipse fill="none" stroke="black" cx="267.5" cy="-102" rx="22" ry="22"/>
<text text-anchor="middle" x="267.5" y="-98.5" font-family="Arial" font-size="10.00">R</text>
</g>
<!-- S&#45;&gt;S -->
<g id="edge5" class="edge">
<title>S&#45;&gt;S</title>
<path fill="none" stroke="black" d="M102.53,-119.04C101.21,-128.86 103.37,-138 109,-138 112.26,-138 114.35,-134.94 115.28,-130.47"/>
<polygon fill="black" stroke="black" points="118.78,-130.61 115.44,-120.55 111.78,-130.49 118.78,-130.61"/>
<text text-anchor="middle" x="109" y="-140.5" font-family="Arial" font-size="10.00">a, b, c</text>
</g>
<!-- A -->
<g id="node5" class="node">
<title>A</title>
<ellipse fill="#e5e5e5" stroke="black" cx="186.25" cy="-186" rx="18" ry="18"/>
<text text-anchor="middle" x="186.25" y="-182.5" font-family="Arial" font-size="10.00">A</text>
</g>
<!-- S&#45;&gt;A -->
<g id="edge2" class="edge">
<title>S&#45;&gt;A</title>
<path fill="none" stroke="black" d="M121.76,-115.12C133.58,-128.32 151.99,-148.87 165.95,-164.46"/>
<polygon fill="black" stroke="black" points="163.29,-166.73 172.56,-171.84 168.5,-162.06 163.29,-166.73"/>
<text text-anchor="middle" x="147.62" y="-149.02" font-family="Arial" font-size="10.00">a</text>
</g>
<!-- B -->
<g id="node6" class="node">
<title>B</title>
<ellipse fill="#e5e5e5" stroke="black" cx="186.25" cy="-102" rx="18" ry="18"/>
<text text-anchor="middle" x="186.25" y="-98.5" font-family="Arial" font-size="10.00">B</text>
</g>
<!-- S&#45;&gt;B -->
<g id="edge3" class="edge">
<title>S&#45;&gt;B</title>
<path fill="none" stroke="black" d="M127.45,-102C136.1,-102 146.75,-102 156.56,-102"/>
<polygon fill="black" stroke="black" points="156.38,-105.5 166.38,-102 156.38,-98.5 156.38,-105.5"/>
<text text-anchor="middle" x="147.62" y="-104.5" font-family="Arial" font-size="10.00">b</text>
</g>
<!-- C -->
<g id="node7" class="node">
<title>C</title>
<ellipse fill="#e5e5e5" stroke="black" cx="186.25" cy="-18" rx="18" ry="18"/>
<text text-anchor="middle" x="186.25" y="-14.5" font-family="Arial" font-size="10.00">C</text>
</g>
<!-- S&#45;&gt;C -->
<g id="edge4" class="edge">
<title>S&#45;&gt;C</title>
<path fill="none" stroke="black" d="M121.76,-88.88C133.58,-75.68 151.99,-55.13 165.95,-39.54"/>
<polygon fill="black" stroke="black" points="168.5,-41.94 172.56,-32.16 163.29,-37.27 168.5,-41.94"/>
<text text-anchor="middle" x="147.62" y="-65.02" font-family="Arial" font-size="10.00">c</text>
</g>
<!-- A&#45;&gt;R -->
<g id="edge7" class="edge">
<title>A&#45;&gt;R</title>
<path fill="none" stroke="black" d="M199.29,-173.24C211.12,-160.7 229.48,-141.24 244.02,-125.82"/>
<polygon fill="black" stroke="black" points="246.29,-128.52 250.6,-118.85 241.2,-123.72 246.29,-128.52"/>
<text text-anchor="middle" x="224.88" y="-149.02" font-family="Arial" font-size="10.00">a</text>
</g>
<!-- A&#45;&gt;A -->
<g id="edge6" class="edge">
<title>A&#45;&gt;A</title>
<path fill="none" stroke="black" d="M179.41,-203.04C178.01,-212.86 180.29,-222 186.25,-222 189.7,-222 191.91,-218.94 192.9,-214.47"/>
<polygon fill="black" stroke="black" points="196.4,-214.61 193.07,-204.55 189.4,-214.49 196.4,-214.61"/>
<text text-anchor="middle" x="186.25" y="-224.5" font-family="Arial" font-size="10.00">a, b, c</text>
</g>
<!-- B&#45;&gt;R -->
<g id="edge9" class="edge">
<title>B&#45;&gt;R</title>
<path fill="none" stroke="black" d="M204.45,-102C213.02,-102 223.68,-102 233.73,-102"/>
<polygon fill="black" stroke="black" points="233.58,-105.5 243.58,-102 233.58,-98.5 233.58,-105.5"/>
<text text-anchor="middle" x="224.88" y="-104.5" font-family="Arial" font-size="10.00">b</text>
</g>
<!-- B&#45;&gt;B -->
<g id="edge8" class="edge">
<title>B&#45;&gt;B</title>
<path fill="none" stroke="black" d="M179.41,-119.04C178.01,-128.86 180.29,-138 186.25,-138 189.7,-138 191.91,-134.94 192.9,-130.47"/>
<polygon fill="black" stroke="black" points="196.4,-130.61 193.07,-120.55 189.4,-130.49 196.4,-130.61"/>
<text text-anchor="middle" x="186.25" y="-140.5" font-family="Arial" font-size="10.00">a, b, c</text>
</g>
<!-- C&#45;&gt;R -->
<g id="edge11" class="edge">
<title>C&#45;&gt;R</title>
<path fill="none" stroke="black" d="M199.29,-30.76C211.12,-43.3 229.48,-62.76 244.02,-78.18"/>
<polygon fill="black" stroke="black" points="241.2,-80.28 250.6,-85.15 246.29,-75.48 241.2,-80.28"/>
<text text-anchor="middle" x="224.88" y="-62.5" font-family="Arial" font-size="10.00">c</text>
</g>
<!-- C&#45;&gt;C -->
<g id="edge10" class="edge">
<title>C&#45;&gt;C</title>
<path fill="none" stroke="black" d="M179.41,-35.04C178.01,-44.86 180.29,-54 186.25,-54 189.7,-54 191.91,-50.94 192.9,-46.47"/>
<polygon fill="black" stroke="black" points="196.4,-46.61 193.07,-36.55 189.4,-46.49 196.4,-46.61"/>
<text text-anchor="middle" x="186.25" y="-56.5" font-family="Arial" font-size="10.00">a, b, c</text>
</g>
</g>
</svg>
