<?xml version="1.0" encoding="UTF-8" standalone="no"?>
<!DOCTYPE svg PUBLIC "-//W3C//DTD SVG 1.1//EN"
 "http://www.w3.org/Graphics/SVG/1.1/DTD/svg11.dtd">
<!-- Generated by graphviz version 12.2.0 (20241103.1931)
 -->
<!-- Title: finite_state_machine Pages: 1 -->
<svg width="883pt" height="521pt"
 viewBox="0.00 0.00 883.20 520.75" xmlns="http://www.w3.org/2000/svg" xmlns:xlink="http://www.w3.org/1999/xlink">
<g id="graph0" class="graph" transform="scale(1 1) rotate(0) translate(4 516.75)">
<title>finite_state_machine</title>
<polygon fill="white" stroke="none" points="-4,4 -4,-516.75 879.2,-516.75 879.2,4 -4,4"/>
<!-- dfaOfNfa: -->
<g id="node1" class="node">
<title>dfaOfNfa:</title>
<text text-anchor="middle" x="33.12" y="-198.4" font-family="Arial" font-size="12.00">dfaOfNfa:</text>
</g>
<!-- START -->
<g id="node2" class="node">
<title>START</title>
<ellipse fill="#e5e5e5" stroke="black" cx="33.12" cy="-240.68" rx="1.8" ry="1.8"/>
</g>
<!-- S -->
<g id="node10" class="node">
<title>S</title>
<ellipse fill="#e5e5e5" stroke="black" cx="130.25" cy="-240.68" rx="27" ry="18"/>
<text text-anchor="middle" x="130.25" y="-237.18" font-family="Arial" font-size="10.00">S</text>
</g>
<!-- START&#45;&gt;S -->
<g id="edge1" class="edge">
<title>START&#45;&gt;S</title>
<path fill="none" stroke="black" d="M35.19,-240.68C40.88,-240.68 68.2,-240.68 91.94,-240.68"/>
<polygon fill="black" stroke="black" points="91.68,-244.18 101.68,-240.68 91.68,-237.18 91.68,-244.18"/>
</g>
<!-- A+B+C+R+S -->
<g id="node3" class="node">
<title>A+B+C+R+S</title>
<ellipse fill="#e5e5e5" stroke="black" cx="825.95" cy="-264.68" rx="45.25" ry="18"/>
<ellipse fill="none" stroke="black" cx="825.95" cy="-264.68" rx="49.25" ry="22"/>
<text text-anchor="middle" x="825.95" y="-261.18" font-family="Arial" font-size="10.00">A+B+C+R+S</text>
</g>
<!-- A+B+C+R+S&#45;&gt;A+B+C+R+S -->
<g id="edge36" class="edge">
<title>A+B+C+R+S&#45;&gt;A+B+C+R+S</title>
<path fill="none" stroke="black" d="M811.04,-286.08C809.41,-296.01 814.38,-304.68 825.95,-304.68 832.63,-304.68 837.12,-301.78 839.39,-297.42"/>
<polygon fill="black" stroke="black" points="842.85,-297.95 840.66,-287.58 835.91,-297.05 842.85,-297.95"/>
<text text-anchor="middle" x="825.95" y="-307.18" font-family="Arial" font-size="10.00">a, b, c</text>
</g>
<!-- A+B+R+S -->
<g id="node4" class="node">
<title>A+B+R+S</title>
<ellipse fill="#e5e5e5" stroke="black" cx="555.85" cy="-386.68" rx="37.13" ry="18"/>
<ellipse fill="none" stroke="black" cx="555.85" cy="-386.68" rx="41.13" ry="22"/>
<text text-anchor="middle" x="555.85" y="-383.18" font-family="Arial" font-size="10.00">A+B+R+S</text>
</g>
<!-- A+B+R+S&#45;&gt;A+B+R+S -->
<g id="edge30" class="edge">
<title>A+B+R+S&#45;&gt;A+B+R+S</title>
<path fill="none" stroke="black" d="M544.41,-408.08C543.17,-418.01 546.98,-426.68 555.85,-426.68 560.98,-426.68 564.41,-423.78 566.16,-419.42"/>
<polygon fill="black" stroke="black" points="569.63,-419.88 567.13,-409.58 562.66,-419.19 569.63,-419.88"/>
<text text-anchor="middle" x="555.85" y="-429.18" font-family="Arial" font-size="10.00">a, b</text>
</g>
<!-- A+B+C+S -->
<g id="node17" class="node">
<title>A+B+C+S</title>
<ellipse fill="#e5e5e5" stroke="black" cx="675.81" cy="-264.68" rx="37.13" ry="18"/>
<text text-anchor="middle" x="675.81" y="-261.18" font-family="Arial" font-size="10.00">A+B+C+S</text>
</g>
<!-- A+B+R+S&#45;&gt;A+B+C+S -->
<g id="edge29" class="edge">
<title>A+B+R+S&#45;&gt;A+B+C+S</title>
<path fill="none" stroke="black" d="M587.43,-372.25C598.69,-366.01 611.03,-357.99 620.68,-348.68 637.59,-332.36 651.75,-309.8 661.35,-292.17"/>
<polygon fill="black" stroke="black" points="664.2,-294.26 665.75,-283.78 658.01,-291.01 664.2,-294.26"/>
<text text-anchor="middle" x="618.06" y="-355.22" font-family="Arial" font-size="10.00">c</text>
</g>
<!-- A+C+R+S -->
<g id="node5" class="node">
<title>A+C+R+S</title>
<ellipse fill="#e5e5e5" stroke="black" cx="555.85" cy="-198.68" rx="37.58" ry="18"/>
<ellipse fill="none" stroke="black" cx="555.85" cy="-198.68" rx="41.58" ry="22"/>
<text text-anchor="middle" x="555.85" y="-195.18" font-family="Arial" font-size="10.00">A+C+R+S</text>
</g>
<!-- A+C+R+S&#45;&gt;A+C+R+S -->
<g id="edge33" class="edge">
<title>A+C+R+S&#45;&gt;A+C+R+S</title>
<path fill="none" stroke="black" d="M544.41,-220.08C543.17,-230.01 546.98,-238.68 555.85,-238.68 560.98,-238.68 564.41,-235.78 566.16,-231.42"/>
<polygon fill="black" stroke="black" points="569.63,-231.88 567.13,-221.58 562.66,-231.19 569.63,-231.88"/>
<text text-anchor="middle" x="555.85" y="-241.18" font-family="Arial" font-size="10.00">a, c</text>
</g>
<!-- A+C+R+S&#45;&gt;A+B+C+S -->
<g id="edge32" class="edge">
<title>A+C+R+S&#45;&gt;A+B+C+S</title>
<path fill="none" stroke="black" d="M585.4,-214.66C602.05,-223.97 623.14,-235.77 640.66,-245.57"/>
<polygon fill="black" stroke="black" points="638.75,-248.51 649.18,-250.34 642.17,-242.4 638.75,-248.51"/>
<text text-anchor="middle" x="618.06" y="-236.16" font-family="Arial" font-size="10.00">b</text>
</g>
<!-- A+R+S -->
<g id="node6" class="node">
<title>A+R+S</title>
<ellipse fill="#e5e5e5" stroke="black" cx="327.67" cy="-428.68" rx="29.47" ry="18"/>
<ellipse fill="none" stroke="black" cx="327.67" cy="-428.68" rx="33.47" ry="22"/>
<text text-anchor="middle" x="327.67" y="-425.18" font-family="Arial" font-size="10.00">A+R+S</text>
</g>
<!-- A+R+S&#45;&gt;A+R+S -->
<g id="edge16" class="edge">
<title>A+R+S&#45;&gt;A+R+S</title>
<path fill="none" stroke="black" d="M317.64,-450.08C316.55,-460.01 319.89,-468.68 327.67,-468.68 332.16,-468.68 335.18,-465.78 336.71,-461.42"/>
<polygon fill="black" stroke="black" points="340.18,-461.85 337.56,-451.59 333.21,-461.25 340.18,-461.85"/>
<text text-anchor="middle" x="327.67" y="-471.18" font-family="Arial" font-size="10.00">a</text>
</g>
<!-- A+B+S -->
<g id="node14" class="node">
<title>A+B+S</title>
<ellipse fill="#e5e5e5" stroke="black" cx="432.3" cy="-350.68" rx="29.01" ry="18"/>
<text text-anchor="middle" x="432.3" y="-347.18" font-family="Arial" font-size="10.00">A+B+S</text>
</g>
<!-- A+R+S&#45;&gt;A+B+S -->
<g id="edge14" class="edge">
<title>A+R+S&#45;&gt;A+B+S</title>
<path fill="none" stroke="black" d="M361.45,-430.01C369.56,-429.08 377.9,-426.95 384.83,-422.68 401.2,-412.6 412.88,-394.36 420.44,-378.76"/>
<polygon fill="black" stroke="black" points="423.51,-380.45 424.4,-369.9 417.12,-377.6 423.51,-380.45"/>
<text text-anchor="middle" x="382.21" y="-427.34" font-family="Arial" font-size="10.00">b</text>
</g>
<!-- A+C+S -->
<g id="node15" class="node">
<title>A+C+S</title>
<ellipse fill="#e5e5e5" stroke="black" cx="432.3" cy="-230.68" rx="29.47" ry="18"/>
<text text-anchor="middle" x="432.3" y="-227.18" font-family="Arial" font-size="10.00">A+C+S</text>
</g>
<!-- A+R+S&#45;&gt;A+C+S -->
<g id="edge15" class="edge">
<title>A+R+S&#45;&gt;A+C+S</title>
<path fill="none" stroke="black" d="M354.38,-415.08C365.19,-408.18 377.05,-398.88 384.83,-387.68 401.69,-363.41 394.51,-352.03 402.83,-323.68 409.18,-302.05 416.65,-277.68 422.35,-259.32"/>
<polygon fill="black" stroke="black" points="425.64,-260.51 425.27,-249.92 418.96,-258.43 425.64,-260.51"/>
<text text-anchor="middle" x="382.21" y="-396.08" font-family="Arial" font-size="10.00">c</text>
</g>
<!-- B+C+R+S -->
<g id="node7" class="node">
<title>B+C+R+S</title>
<ellipse fill="#e5e5e5" stroke="black" cx="555.85" cy="-106.68" rx="37.58" ry="18"/>
<ellipse fill="none" stroke="black" cx="555.85" cy="-106.68" rx="41.58" ry="22"/>
<text text-anchor="middle" x="555.85" y="-103.18" font-family="Arial" font-size="10.00">B+C+R+S</text>
</g>
<!-- B+C+R+S&#45;&gt;B+C+R+S -->
<g id="edge35" class="edge">
<title>B+C+R+S&#45;&gt;B+C+R+S</title>
<path fill="none" stroke="black" d="M544.41,-128.08C543.17,-138.01 546.98,-146.68 555.85,-146.68 560.98,-146.68 564.41,-143.78 566.16,-139.42"/>
<polygon fill="black" stroke="black" points="569.63,-139.88 567.13,-129.58 562.66,-139.19 569.63,-139.88"/>
<text text-anchor="middle" x="555.85" y="-149.18" font-family="Arial" font-size="10.00">b, c</text>
</g>
<!-- B+C+R+S&#45;&gt;A+B+C+S -->
<g id="edge34" class="edge">
<title>B+C+R+S&#45;&gt;A+B+C+S</title>
<path fill="none" stroke="black" d="M572.27,-127.34C593.66,-155.99 632.33,-207.78 655.59,-238.92"/>
<polygon fill="black" stroke="black" points="652.58,-240.75 661.36,-246.67 658.19,-236.56 652.58,-240.75"/>
<text text-anchor="middle" x="618.06" y="-192.92" font-family="Arial" font-size="10.00">a</text>
</g>
<!-- B+R+S -->
<g id="node8" class="node">
<title>B+R+S</title>
<ellipse fill="#e5e5e5" stroke="black" cx="327.67" cy="-240.68" rx="29.47" ry="18"/>
<ellipse fill="none" stroke="black" cx="327.67" cy="-240.68" rx="33.47" ry="22"/>
<text text-anchor="middle" x="327.67" y="-237.18" font-family="Arial" font-size="10.00">B+R+S</text>
</g>
<!-- B+R+S&#45;&gt;B+R+S -->
<g id="edge23" class="edge">
<title>B+R+S&#45;&gt;B+R+S</title>
<path fill="none" stroke="black" d="M317.64,-262.08C316.55,-272.01 319.89,-280.68 327.67,-280.68 332.16,-280.68 335.18,-277.78 336.71,-273.42"/>
<polygon fill="black" stroke="black" points="340.18,-273.85 337.56,-263.59 333.21,-273.25 340.18,-273.85"/>
<text text-anchor="middle" x="327.67" y="-283.18" font-family="Arial" font-size="10.00">b</text>
</g>
<!-- B+R+S&#45;&gt;A+B+S -->
<g id="edge21" class="edge">
<title>B+R+S&#45;&gt;A+B+S</title>
<path fill="none" stroke="black" d="M346.08,-259.34C363.41,-277.92 390.1,-306.52 408.98,-326.76"/>
<polygon fill="black" stroke="black" points="406.38,-329.1 415.76,-334.03 411.5,-324.33 406.38,-329.1"/>
<text text-anchor="middle" x="382.21" y="-301.48" font-family="Arial" font-size="10.00">a</text>
</g>
<!-- B+C+S -->
<g id="node16" class="node">
<title>B+C+S</title>
<ellipse fill="#e5e5e5" stroke="black" cx="432.3" cy="-56.68" rx="29.47" ry="18"/>
<text text-anchor="middle" x="432.3" y="-53.18" font-family="Arial" font-size="10.00">B+C+S</text>
</g>
<!-- B+R+S&#45;&gt;B+C+S -->
<g id="edge22" class="edge">
<title>B+R+S&#45;&gt;B+C+S</title>
<path fill="none" stroke="black" d="M347.23,-222.51C352.25,-217.06 357.43,-210.87 361.58,-204.68 387.64,-165.81 409.03,-115.66 420.97,-84.86"/>
<polygon fill="black" stroke="black" points="424.11,-86.45 424.4,-75.86 417.57,-83.96 424.11,-86.45"/>
<text text-anchor="middle" x="382.21" y="-176.57" font-family="Arial" font-size="10.00">c</text>
</g>
<!-- C+R+S -->
<g id="node9" class="node">
<title>C+R+S</title>
<ellipse fill="#e5e5e5" stroke="black" cx="327.67" cy="-52.68" rx="29.92" ry="18"/>
<ellipse fill="none" stroke="black" cx="327.67" cy="-52.68" rx="33.92" ry="22"/>
<text text-anchor="middle" x="327.67" y="-49.18" font-family="Arial" font-size="10.00">C+R+S</text>
</g>
<!-- C+R+S&#45;&gt;C+R+S -->
<g id="edge28" class="edge">
<title>C+R+S&#45;&gt;C+R+S</title>
<path fill="none" stroke="black" d="M317.64,-74.08C316.55,-84.01 319.89,-92.68 327.67,-92.68 332.16,-92.68 335.18,-89.78 336.71,-85.42"/>
<polygon fill="black" stroke="black" points="340.18,-85.85 337.56,-75.59 333.21,-85.25 340.18,-85.85"/>
<text text-anchor="middle" x="327.67" y="-95.18" font-family="Arial" font-size="10.00">c</text>
</g>
<!-- C+R+S&#45;&gt;A+C+S -->
<g id="edge26" class="edge">
<title>C+R+S&#45;&gt;A+C+S</title>
<path fill="none" stroke="black" d="M342.42,-72.71C354.17,-90.11 371.28,-116.16 384.83,-139.68 396.84,-160.53 409.17,-184.82 418.11,-203.07"/>
<polygon fill="black" stroke="black" points="414.89,-204.47 422.41,-211.93 421.19,-201.41 414.89,-204.47"/>
<text text-anchor="middle" x="382.21" y="-142.18" font-family="Arial" font-size="10.00">a</text>
</g>
<!-- C+R+S&#45;&gt;B+C+S -->
<g id="edge27" class="edge">
<title>C+R+S&#45;&gt;B+C+S</title>
<path fill="none" stroke="black" d="M361.99,-53.98C371.31,-54.34 381.54,-54.74 391.21,-55.12"/>
<polygon fill="black" stroke="black" points="390.98,-58.61 401.11,-55.5 391.26,-51.62 390.98,-58.61"/>
<text text-anchor="middle" x="382.21" y="-57.3" font-family="Arial" font-size="10.00">b</text>
</g>
<!-- A+S -->
<g id="node11" class="node">
<title>A+S</title>
<ellipse fill="#e5e5e5" stroke="black" cx="225.5" cy="-397.68" rx="27" ry="18"/>
<text text-anchor="middle" x="225.5" y="-394.18" font-family="Arial" font-size="10.00">A+S</text>
</g>
<!-- S&#45;&gt;A+S -->
<g id="edge2" class="edge">
<title>S&#45;&gt;A+S</title>
<path fill="none" stroke="black" d="M141.23,-257.48C157.42,-284.75 189.56,-338.84 208.82,-371.29"/>
<polygon fill="black" stroke="black" points="205.7,-372.89 213.82,-379.7 211.72,-369.31 205.7,-372.89"/>
<text text-anchor="middle" x="177.88" y="-321.68" font-family="Arial" font-size="10.00">a</text>
</g>
<!-- B+S -->
<g id="node12" class="node">
<title>B+S</title>
<ellipse fill="#e5e5e5" stroke="black" cx="225.5" cy="-240.68" rx="27" ry="18"/>
<text text-anchor="middle" x="225.5" y="-237.18" font-family="Arial" font-size="10.00">B+S</text>
</g>
<!-- S&#45;&gt;B+S -->
<g id="edge3" class="edge">
<title>S&#45;&gt;B+S</title>
<path fill="none" stroke="black" d="M157.72,-240.68C166.76,-240.68 177.04,-240.68 186.79,-240.68"/>
<polygon fill="black" stroke="black" points="186.77,-244.18 196.77,-240.68 186.77,-237.18 186.77,-244.18"/>
<text text-anchor="middle" x="177.88" y="-243.18" font-family="Arial" font-size="10.00">b</text>
</g>
<!-- C+S -->
<g id="node13" class="node">
<title>C+S</title>
<ellipse fill="#e5e5e5" stroke="black" cx="225.5" cy="-143.68" rx="27" ry="18"/>
<text text-anchor="middle" x="225.5" y="-140.18" font-family="Arial" font-size="10.00">C+S</text>
</g>
<!-- S&#45;&gt;C+S -->
<g id="edge4" class="edge">
<title>S&#45;&gt;C+S</title>
<path fill="none" stroke="black" d="M145.82,-225.52C161.01,-209.72 185,-184.76 202.5,-166.56"/>
<polygon fill="black" stroke="black" points="204.58,-169.46 208.98,-159.82 199.53,-164.6 204.58,-169.46"/>
<text text-anchor="middle" x="177.88" y="-194.68" font-family="Arial" font-size="10.00">c</text>
</g>
<!-- A+S&#45;&gt;A+R+S -->
<g id="edge7" class="edge">
<title>A+S&#45;&gt;A+R+S</title>
<path fill="none" stroke="black" d="M250.49,-405.1C261.13,-408.4 273.94,-412.36 286,-416.09"/>
<polygon fill="black" stroke="black" points="284.74,-419.37 295.33,-418.98 286.81,-412.68 284.74,-419.37"/>
<text text-anchor="middle" x="273.12" y="-414.75" font-family="Arial" font-size="10.00">a</text>
</g>
<!-- A+S&#45;&gt;A+B+S -->
<g id="edge5" class="edge">
<title>A+S&#45;&gt;A+B+S</title>
<path fill="none" stroke="black" d="M233.33,-415.15C243.02,-437.19 263.05,-474.1 293.75,-489.68 320.63,-503.33 335.93,-505.51 361.58,-489.68 400.42,-465.71 418.37,-412.77 426.08,-379.59"/>
<polygon fill="black" stroke="black" points="429.41,-380.74 428.08,-370.23 422.56,-379.28 429.41,-380.74"/>
<text text-anchor="middle" x="327.67" y="-503.25" font-family="Arial" font-size="10.00">b</text>
</g>
<!-- A+S&#45;&gt;A+C+S -->
<g id="edge6" class="edge">
<title>A+S&#45;&gt;A+C+S</title>
<path fill="none" stroke="black" d="M251.87,-393.04C280.8,-386.74 328.38,-373.22 361.58,-347.68 391.1,-324.97 410.69,-285.92 421.39,-259.23"/>
<polygon fill="black" stroke="black" points="424.6,-260.63 424.89,-250.04 418.06,-258.14 424.6,-260.63"/>
<text text-anchor="middle" x="327.67" y="-383.99" font-family="Arial" font-size="10.00">c</text>
</g>
<!-- B+S&#45;&gt;B+R+S -->
<g id="edge10" class="edge">
<title>B+S&#45;&gt;B+R+S</title>
<path fill="none" stroke="black" d="M252.82,-240.68C261.91,-240.68 272.37,-240.68 282.5,-240.68"/>
<polygon fill="black" stroke="black" points="282.2,-244.18 292.2,-240.68 282.2,-237.18 282.2,-244.18"/>
<text text-anchor="middle" x="273.12" y="-243.18" font-family="Arial" font-size="10.00">b</text>
</g>
<!-- B+S&#45;&gt;A+B+S -->
<g id="edge8" class="edge">
<title>B+S&#45;&gt;A+B+S</title>
<path fill="none" stroke="black" d="M240.1,-256.08C252.82,-269.67 272.92,-289.21 293.75,-301.68 325.24,-320.53 365.11,-333.73 393.8,-341.64"/>
<polygon fill="black" stroke="black" points="392.57,-344.94 403.13,-344.13 394.37,-338.17 392.57,-344.94"/>
<text text-anchor="middle" x="327.67" y="-333.82" font-family="Arial" font-size="10.00">a</text>
</g>
<!-- B+S&#45;&gt;B+C+S -->
<g id="edge9" class="edge">
<title>B+S&#45;&gt;B+C+S</title>
<path fill="none" stroke="black" d="M235.3,-223.68C246.35,-203.98 267.13,-171.91 293.75,-153.68 328.59,-129.82 350.88,-151.78 384.83,-126.68 399.56,-115.8 411.01,-98.75 418.87,-84.21"/>
<polygon fill="black" stroke="black" points="421.87,-86.04 423.26,-75.54 415.62,-82.88 421.87,-86.04"/>
<text text-anchor="middle" x="327.67" y="-156.18" font-family="Arial" font-size="10.00">c</text>
</g>
<!-- C+S&#45;&gt;C+R+S -->
<g id="edge13" class="edge">
<title>C+S&#45;&gt;C+R+S</title>
<path fill="none" stroke="black" d="M242.15,-129.46C257.19,-115.8 280.25,-94.85 298.49,-78.28"/>
<polygon fill="black" stroke="black" points="300.83,-80.88 305.88,-71.57 296.12,-75.7 300.83,-80.88"/>
<text text-anchor="middle" x="273.12" y="-106.13" font-family="Arial" font-size="10.00">c</text>
</g>
<!-- C+S&#45;&gt;A+C+S -->
<g id="edge11" class="edge">
<title>C+S&#45;&gt;A+C+S</title>
<path fill="none" stroke="black" d="M249.62,-152.42C276.67,-162.76 322.69,-180.72 361.58,-197.68 373.71,-202.97 386.85,-209.08 398.43,-214.61"/>
<polygon fill="black" stroke="black" points="396.65,-217.64 407.18,-218.81 399.68,-211.33 396.65,-217.64"/>
<text text-anchor="middle" x="327.67" y="-200.18" font-family="Arial" font-size="10.00">a</text>
</g>
<!-- C+S&#45;&gt;B+C+S -->
<g id="edge12" class="edge">
<title>C+S&#45;&gt;B+C+S</title>
<path fill="none" stroke="black" d="M229.4,-125.78C235.36,-95.6 252.1,-35.37 293.75,-9.68 319.41,6.15 332.75,-0.87 361.58,-9.68 377.94,-14.68 393.92,-24.94 406.45,-34.61"/>
<polygon fill="black" stroke="black" points="404.16,-37.25 414.13,-40.83 408.56,-31.82 404.16,-37.25"/>
<text text-anchor="middle" x="327.67" y="-12.18" font-family="Arial" font-size="10.00">b</text>
</g>
<!-- A+B+S&#45;&gt;A+B+R+S -->
<g id="edge18" class="edge">
<title>A+B+S&#45;&gt;A+B+R+S</title>
<path fill="none" stroke="black" d="M459.08,-358.31C473.48,-362.58 491.87,-368.03 508.67,-373"/>
<polygon fill="black" stroke="black" points="507.39,-376.27 517.97,-375.76 509.38,-369.56 507.39,-376.27"/>
<text text-anchor="middle" x="488.01" y="-371.18" font-family="Arial" font-size="10.00">a, b</text>
</g>
<!-- A+B+S&#45;&gt;A+B+C+S -->
<g id="edge17" class="edge">
<title>A+B+S&#45;&gt;A+B+C+S</title>
<path fill="none" stroke="black" d="M457.79,-341.96C499.26,-327.19 583.73,-297.11 634.18,-279.15"/>
<polygon fill="black" stroke="black" points="635.34,-282.45 643.59,-275.8 632.99,-275.86 635.34,-282.45"/>
<text text-anchor="middle" x="555.85" y="-324.28" font-family="Arial" font-size="10.00">c</text>
</g>
<!-- A+C+S&#45;&gt;A+C+R+S -->
<g id="edge20" class="edge">
<title>A+C+S&#45;&gt;A+C+R+S</title>
<path fill="none" stroke="black" d="M459.97,-223.66C473.83,-220.01 491.18,-215.44 507.24,-211.21"/>
<polygon fill="black" stroke="black" points="507.85,-214.67 516.63,-208.74 506.07,-207.9 507.85,-214.67"/>
<text text-anchor="middle" x="488.01" y="-220.05" font-family="Arial" font-size="10.00">a, c</text>
</g>
<!-- A+C+S&#45;&gt;A+B+C+S -->
<g id="edge19" class="edge">
<title>A+C+S&#45;&gt;A+B+C+S</title>
<path fill="none" stroke="black" d="M456.49,-241.18C472.39,-247.83 494.17,-255.87 514.26,-259.68 551.72,-266.79 594.96,-267.73 627.12,-267.06"/>
<polygon fill="black" stroke="black" points="627.02,-270.57 636.92,-266.8 626.83,-263.57 627.02,-270.57"/>
<text text-anchor="middle" x="555.85" y="-269.62" font-family="Arial" font-size="10.00">b</text>
</g>
<!-- B+C+S&#45;&gt;B+C+R+S -->
<g id="edge25" class="edge">
<title>B+C+S&#45;&gt;B+C+R+S</title>
<path fill="none" stroke="black" d="M457.31,-66.56C472.81,-72.93 493.42,-81.41 511.7,-88.93"/>
<polygon fill="black" stroke="black" points="510.16,-92.08 520.74,-92.65 512.82,-85.61 510.16,-92.08"/>
<text text-anchor="middle" x="488.01" y="-84.18" font-family="Arial" font-size="10.00">b, c</text>
</g>
<!-- B+C+S&#45;&gt;A+B+C+S -->
<g id="edge24" class="edge">
<title>B+C+S&#45;&gt;A+B+C+S</title>
<path fill="none" stroke="black" d="M459.72,-49.66C494.73,-42.02 556.78,-34.48 597.43,-63.68 653.07,-103.65 668.7,-189.35 673.1,-234.86"/>
<polygon fill="black" stroke="black" points="669.61,-235.11 673.92,-244.79 676.58,-234.53 669.61,-235.11"/>
<text text-anchor="middle" x="555.85" y="-66.18" font-family="Arial" font-size="10.00">a</text>
</g>
<!-- A+B+C+S&#45;&gt;A+B+C+R+S -->
<g id="edge31" class="edge">
<title>A+B+C+S&#45;&gt;A+B+C+R+S</title>
<path fill="none" stroke="black" d="M713.43,-264.68C729.03,-264.68 747.65,-264.68 765.15,-264.68"/>
<polygon fill="black" stroke="black" points="764.94,-268.18 774.94,-264.68 764.94,-261.18 764.94,-268.18"/>
<text text-anchor="middle" x="744.82" y="-267.18" font-family="Arial" font-size="10.00">a, b, c</text>
</g>
</g>
</svg>
