<?xml version="1.0" encoding="UTF-8" standalone="no"?>
<!DOCTYPE svg PUBLIC "-//W3C//DTD SVG 1.1//EN"
 "http://www.w3.org/Graphics/SVG/1.1/DTD/svg11.dtd">
<!-- Generated by graphviz version 12.2.0 (20241103.1931)
 -->
<!-- Title: finite_state_machine Pages: 1 -->
<svg width="905pt" height="521pt"
 viewBox="0.00 0.00 904.95 520.75" xmlns="http://www.w3.org/2000/svg" xmlns:xlink="http://www.w3.org/1999/xlink">
<g id="graph0" class="graph" transform="scale(1 1) rotate(0) translate(4 516.75)">
<title>finite_state_machine</title>
<polygon fill="white" stroke="none" points="-4,4 -4,-516.75 900.95,-516.75 900.95,4 -4,4"/>
<!-- minDfaOfNfa: -->
<g id="node1" class="node">
<title>minDfaOfNfa:</title>
<text text-anchor="middle" x="44" y="-198.4" font-family="Arial" font-size="12.00">minDfaOfNfa:</text>
</g>
<!-- START -->
<g id="node2" class="node">
<title>START</title>
<ellipse fill="#e5e5e5" stroke="black" cx="44" cy="-240.68" rx="1.8" ry="1.8"/>
</g>
<!-- S -->
<g id="node10" class="node">
<title>S</title>
<ellipse fill="#e5e5e5" stroke="black" cx="152" cy="-240.68" rx="27" ry="18"/>
<text text-anchor="middle" x="152" y="-237.18" font-family="Arial" font-size="10.00">S</text>
</g>
<!-- START&#45;&gt;S -->
<g id="edge1" class="edge">
<title>START&#45;&gt;S</title>
<path fill="none" stroke="black" d="M46.19,-240.68C52.84,-240.68 86.04,-240.68 113.33,-240.68"/>
<polygon fill="black" stroke="black" points="113.05,-244.18 123.05,-240.68 113.05,-237.18 113.05,-244.18"/>
</g>
<!-- A+B+C+R+S -->
<g id="node3" class="node">
<title>A+B+C+R+S</title>
<ellipse fill="#e5e5e5" stroke="black" cx="847.7" cy="-264.68" rx="45.25" ry="18"/>
<ellipse fill="none" stroke="black" cx="847.7" cy="-264.68" rx="49.25" ry="22"/>
<text text-anchor="middle" x="847.7" y="-261.18" font-family="Arial" font-size="10.00">A+B+C+R+S</text>
</g>
<!-- A+B+C+R+S&#45;&gt;A+B+C+R+S -->
<g id="edge36" class="edge">
<title>A+B+C+R+S&#45;&gt;A+B+C+R+S</title>
<path fill="none" stroke="black" d="M832.79,-286.08C831.16,-296.01 836.13,-304.68 847.7,-304.68 854.38,-304.68 858.87,-301.78 861.14,-297.42"/>
<polygon fill="black" stroke="black" points="864.6,-297.95 862.41,-287.58 857.66,-297.05 864.6,-297.95"/>
<text text-anchor="middle" x="847.7" y="-307.18" font-family="Arial" font-size="10.00">a, b, c</text>
</g>
<!-- A+B+R+S -->
<g id="node4" class="node">
<title>A+B+R+S</title>
<ellipse fill="#e5e5e5" stroke="black" cx="577.6" cy="-386.68" rx="37.13" ry="18"/>
<ellipse fill="none" stroke="black" cx="577.6" cy="-386.68" rx="41.13" ry="22"/>
<text text-anchor="middle" x="577.6" y="-383.18" font-family="Arial" font-size="10.00">A+B+R+S</text>
</g>
<!-- A+B+R+S&#45;&gt;A+B+R+S -->
<g id="edge30" class="edge">
<title>A+B+R+S&#45;&gt;A+B+R+S</title>
<path fill="none" stroke="black" d="M566.16,-408.08C564.92,-418.01 568.73,-426.68 577.6,-426.68 582.73,-426.68 586.16,-423.78 587.91,-419.42"/>
<polygon fill="black" stroke="black" points="591.38,-419.88 588.88,-409.58 584.41,-419.19 591.38,-419.88"/>
<text text-anchor="middle" x="577.6" y="-429.18" font-family="Arial" font-size="10.00">a, b</text>
</g>
<!-- A+B+C+S -->
<g id="node17" class="node">
<title>A+B+C+S</title>
<ellipse fill="#e5e5e5" stroke="black" cx="697.56" cy="-264.68" rx="37.13" ry="18"/>
<text text-anchor="middle" x="697.56" y="-261.18" font-family="Arial" font-size="10.00">A+B+C+S</text>
</g>
<!-- A+B+R+S&#45;&gt;A+B+C+S -->
<g id="edge29" class="edge">
<title>A+B+R+S&#45;&gt;A+B+C+S</title>
<path fill="none" stroke="black" d="M609.18,-372.25C620.44,-366.01 632.78,-357.99 642.43,-348.68 659.34,-332.36 673.5,-309.8 683.1,-292.17"/>
<polygon fill="black" stroke="black" points="685.95,-294.26 687.5,-283.78 679.76,-291.01 685.95,-294.26"/>
<text text-anchor="middle" x="639.81" y="-355.22" font-family="Arial" font-size="10.00">c</text>
</g>
<!-- A+C+R+S -->
<g id="node5" class="node">
<title>A+C+R+S</title>
<ellipse fill="#e5e5e5" stroke="black" cx="577.6" cy="-198.68" rx="37.58" ry="18"/>
<ellipse fill="none" stroke="black" cx="577.6" cy="-198.68" rx="41.58" ry="22"/>
<text text-anchor="middle" x="577.6" y="-195.18" font-family="Arial" font-size="10.00">A+C+R+S</text>
</g>
<!-- A+C+R+S&#45;&gt;A+C+R+S -->
<g id="edge33" class="edge">
<title>A+C+R+S&#45;&gt;A+C+R+S</title>
<path fill="none" stroke="black" d="M566.16,-220.08C564.92,-230.01 568.73,-238.68 577.6,-238.68 582.73,-238.68 586.16,-235.78 587.91,-231.42"/>
<polygon fill="black" stroke="black" points="591.38,-231.88 588.88,-221.58 584.41,-231.19 591.38,-231.88"/>
<text text-anchor="middle" x="577.6" y="-241.18" font-family="Arial" font-size="10.00">a, c</text>
</g>
<!-- A+C+R+S&#45;&gt;A+B+C+S -->
<g id="edge32" class="edge">
<title>A+C+R+S&#45;&gt;A+B+C+S</title>
<path fill="none" stroke="black" d="M607.15,-214.66C623.8,-223.97 644.89,-235.77 662.41,-245.57"/>
<polygon fill="black" stroke="black" points="660.5,-248.51 670.93,-250.34 663.92,-242.4 660.5,-248.51"/>
<text text-anchor="middle" x="639.81" y="-236.16" font-family="Arial" font-size="10.00">b</text>
</g>
<!-- A+R+S -->
<g id="node6" class="node">
<title>A+R+S</title>
<ellipse fill="#e5e5e5" stroke="black" cx="349.42" cy="-428.68" rx="29.47" ry="18"/>
<ellipse fill="none" stroke="black" cx="349.42" cy="-428.68" rx="33.47" ry="22"/>
<text text-anchor="middle" x="349.42" y="-425.18" font-family="Arial" font-size="10.00">A+R+S</text>
</g>
<!-- A+R+S&#45;&gt;A+R+S -->
<g id="edge16" class="edge">
<title>A+R+S&#45;&gt;A+R+S</title>
<path fill="none" stroke="black" d="M339.39,-450.08C338.3,-460.01 341.64,-468.68 349.42,-468.68 353.91,-468.68 356.93,-465.78 358.46,-461.42"/>
<polygon fill="black" stroke="black" points="361.93,-461.85 359.31,-451.59 354.96,-461.25 361.93,-461.85"/>
<text text-anchor="middle" x="349.42" y="-471.18" font-family="Arial" font-size="10.00">a</text>
</g>
<!-- A+B+S -->
<g id="node14" class="node">
<title>A+B+S</title>
<ellipse fill="#e5e5e5" stroke="black" cx="454.05" cy="-350.68" rx="29.01" ry="18"/>
<text text-anchor="middle" x="454.05" y="-347.18" font-family="Arial" font-size="10.00">A+B+S</text>
</g>
<!-- A+R+S&#45;&gt;A+B+S -->
<g id="edge14" class="edge">
<title>A+R+S&#45;&gt;A+B+S</title>
<path fill="none" stroke="black" d="M383.2,-430.01C391.31,-429.08 399.65,-426.95 406.58,-422.68 422.95,-412.6 434.63,-394.36 442.19,-378.76"/>
<polygon fill="black" stroke="black" points="445.26,-380.45 446.15,-369.9 438.87,-377.6 445.26,-380.45"/>
<text text-anchor="middle" x="403.96" y="-427.34" font-family="Arial" font-size="10.00">b</text>
</g>
<!-- A+C+S -->
<g id="node15" class="node">
<title>A+C+S</title>
<ellipse fill="#e5e5e5" stroke="black" cx="454.05" cy="-230.68" rx="29.47" ry="18"/>
<text text-anchor="middle" x="454.05" y="-227.18" font-family="Arial" font-size="10.00">A+C+S</text>
</g>
<!-- A+R+S&#45;&gt;A+C+S -->
<g id="edge15" class="edge">
<title>A+R+S&#45;&gt;A+C+S</title>
<path fill="none" stroke="black" d="M376.13,-415.08C386.94,-408.18 398.8,-398.88 406.58,-387.68 423.44,-363.41 416.26,-352.03 424.58,-323.68 430.93,-302.05 438.4,-277.68 444.1,-259.32"/>
<polygon fill="black" stroke="black" points="447.39,-260.51 447.02,-249.92 440.71,-258.43 447.39,-260.51"/>
<text text-anchor="middle" x="403.96" y="-396.08" font-family="Arial" font-size="10.00">c</text>
</g>
<!-- B+C+R+S -->
<g id="node7" class="node">
<title>B+C+R+S</title>
<ellipse fill="#e5e5e5" stroke="black" cx="577.6" cy="-106.68" rx="37.58" ry="18"/>
<ellipse fill="none" stroke="black" cx="577.6" cy="-106.68" rx="41.58" ry="22"/>
<text text-anchor="middle" x="577.6" y="-103.18" font-family="Arial" font-size="10.00">B+C+R+S</text>
</g>
<!-- B+C+R+S&#45;&gt;B+C+R+S -->
<g id="edge35" class="edge">
<title>B+C+R+S&#45;&gt;B+C+R+S</title>
<path fill="none" stroke="black" d="M566.16,-128.08C564.92,-138.01 568.73,-146.68 577.6,-146.68 582.73,-146.68 586.16,-143.78 587.91,-139.42"/>
<polygon fill="black" stroke="black" points="591.38,-139.88 588.88,-129.58 584.41,-139.19 591.38,-139.88"/>
<text text-anchor="middle" x="577.6" y="-149.18" font-family="Arial" font-size="10.00">b, c</text>
</g>
<!-- B+C+R+S&#45;&gt;A+B+C+S -->
<g id="edge34" class="edge">
<title>B+C+R+S&#45;&gt;A+B+C+S</title>
<path fill="none" stroke="black" d="M594.02,-127.34C615.41,-155.99 654.08,-207.78 677.34,-238.92"/>
<polygon fill="black" stroke="black" points="674.33,-240.75 683.11,-246.67 679.94,-236.56 674.33,-240.75"/>
<text text-anchor="middle" x="639.81" y="-192.92" font-family="Arial" font-size="10.00">a</text>
</g>
<!-- B+R+S -->
<g id="node8" class="node">
<title>B+R+S</title>
<ellipse fill="#e5e5e5" stroke="black" cx="349.42" cy="-240.68" rx="29.47" ry="18"/>
<ellipse fill="none" stroke="black" cx="349.42" cy="-240.68" rx="33.47" ry="22"/>
<text text-anchor="middle" x="349.42" y="-237.18" font-family="Arial" font-size="10.00">B+R+S</text>
</g>
<!-- B+R+S&#45;&gt;B+R+S -->
<g id="edge23" class="edge">
<title>B+R+S&#45;&gt;B+R+S</title>
<path fill="none" stroke="black" d="M339.39,-262.08C338.3,-272.01 341.64,-280.68 349.42,-280.68 353.91,-280.68 356.93,-277.78 358.46,-273.42"/>
<polygon fill="black" stroke="black" points="361.93,-273.85 359.31,-263.59 354.96,-273.25 361.93,-273.85"/>
<text text-anchor="middle" x="349.42" y="-283.18" font-family="Arial" font-size="10.00">b</text>
</g>
<!-- B+R+S&#45;&gt;A+B+S -->
<g id="edge21" class="edge">
<title>B+R+S&#45;&gt;A+B+S</title>
<path fill="none" stroke="black" d="M367.83,-259.34C385.16,-277.92 411.85,-306.52 430.73,-326.76"/>
<polygon fill="black" stroke="black" points="428.13,-329.1 437.51,-334.03 433.25,-324.33 428.13,-329.1"/>
<text text-anchor="middle" x="403.96" y="-301.48" font-family="Arial" font-size="10.00">a</text>
</g>
<!-- B+C+S -->
<g id="node16" class="node">
<title>B+C+S</title>
<ellipse fill="#e5e5e5" stroke="black" cx="454.05" cy="-56.68" rx="29.47" ry="18"/>
<text text-anchor="middle" x="454.05" y="-53.18" font-family="Arial" font-size="10.00">B+C+S</text>
</g>
<!-- B+R+S&#45;&gt;B+C+S -->
<g id="edge22" class="edge">
<title>B+R+S&#45;&gt;B+C+S</title>
<path fill="none" stroke="black" d="M368.98,-222.51C374,-217.06 379.18,-210.87 383.33,-204.68 409.39,-165.81 430.78,-115.66 442.72,-84.86"/>
<polygon fill="black" stroke="black" points="445.86,-86.45 446.15,-75.86 439.32,-83.96 445.86,-86.45"/>
<text text-anchor="middle" x="403.96" y="-176.57" font-family="Arial" font-size="10.00">c</text>
</g>
<!-- C+R+S -->
<g id="node9" class="node">
<title>C+R+S</title>
<ellipse fill="#e5e5e5" stroke="black" cx="349.42" cy="-52.68" rx="29.92" ry="18"/>
<ellipse fill="none" stroke="black" cx="349.42" cy="-52.68" rx="33.92" ry="22"/>
<text text-anchor="middle" x="349.42" y="-49.18" font-family="Arial" font-size="10.00">C+R+S</text>
</g>
<!-- C+R+S&#45;&gt;C+R+S -->
<g id="edge28" class="edge">
<title>C+R+S&#45;&gt;C+R+S</title>
<path fill="none" stroke="black" d="M339.39,-74.08C338.3,-84.01 341.64,-92.68 349.42,-92.68 353.91,-92.68 356.93,-89.78 358.46,-85.42"/>
<polygon fill="black" stroke="black" points="361.93,-85.85 359.31,-75.59 354.96,-85.25 361.93,-85.85"/>
<text text-anchor="middle" x="349.42" y="-95.18" font-family="Arial" font-size="10.00">c</text>
</g>
<!-- C+R+S&#45;&gt;A+C+S -->
<g id="edge26" class="edge">
<title>C+R+S&#45;&gt;A+C+S</title>
<path fill="none" stroke="black" d="M364.17,-72.71C375.92,-90.11 393.03,-116.16 406.58,-139.68 418.59,-160.53 430.92,-184.82 439.86,-203.07"/>
<polygon fill="black" stroke="black" points="436.64,-204.47 444.16,-211.93 442.94,-201.41 436.64,-204.47"/>
<text text-anchor="middle" x="403.96" y="-142.18" font-family="Arial" font-size="10.00">a</text>
</g>
<!-- C+R+S&#45;&gt;B+C+S -->
<g id="edge27" class="edge">
<title>C+R+S&#45;&gt;B+C+S</title>
<path fill="none" stroke="black" d="M383.74,-53.98C393.06,-54.34 403.29,-54.74 412.96,-55.12"/>
<polygon fill="black" stroke="black" points="412.73,-58.61 422.86,-55.5 413.01,-51.62 412.73,-58.61"/>
<text text-anchor="middle" x="403.96" y="-57.3" font-family="Arial" font-size="10.00">b</text>
</g>
<!-- A+S -->
<g id="node11" class="node">
<title>A+S</title>
<ellipse fill="#e5e5e5" stroke="black" cx="247.25" cy="-397.68" rx="27" ry="18"/>
<text text-anchor="middle" x="247.25" y="-394.18" font-family="Arial" font-size="10.00">A+S</text>
</g>
<!-- S&#45;&gt;A+S -->
<g id="edge2" class="edge">
<title>S&#45;&gt;A+S</title>
<path fill="none" stroke="black" d="M162.98,-257.48C179.17,-284.75 211.31,-338.84 230.57,-371.29"/>
<polygon fill="black" stroke="black" points="227.45,-372.89 235.57,-379.7 233.47,-369.31 227.45,-372.89"/>
<text text-anchor="middle" x="199.62" y="-321.68" font-family="Arial" font-size="10.00">a</text>
</g>
<!-- B+S -->
<g id="node12" class="node">
<title>B+S</title>
<ellipse fill="#e5e5e5" stroke="black" cx="247.25" cy="-240.68" rx="27" ry="18"/>
<text text-anchor="middle" x="247.25" y="-237.18" font-family="Arial" font-size="10.00">B+S</text>
</g>
<!-- S&#45;&gt;B+S -->
<g id="edge3" class="edge">
<title>S&#45;&gt;B+S</title>
<path fill="none" stroke="black" d="M179.47,-240.68C188.51,-240.68 198.79,-240.68 208.54,-240.68"/>
<polygon fill="black" stroke="black" points="208.52,-244.18 218.52,-240.68 208.52,-237.18 208.52,-244.18"/>
<text text-anchor="middle" x="199.62" y="-243.18" font-family="Arial" font-size="10.00">b</text>
</g>
<!-- C+S -->
<g id="node13" class="node">
<title>C+S</title>
<ellipse fill="#e5e5e5" stroke="black" cx="247.25" cy="-143.68" rx="27" ry="18"/>
<text text-anchor="middle" x="247.25" y="-140.18" font-family="Arial" font-size="10.00">C+S</text>
</g>
<!-- S&#45;&gt;C+S -->
<g id="edge4" class="edge">
<title>S&#45;&gt;C+S</title>
<path fill="none" stroke="black" d="M167.57,-225.52C182.76,-209.72 206.75,-184.76 224.25,-166.56"/>
<polygon fill="black" stroke="black" points="226.33,-169.46 230.73,-159.82 221.28,-164.6 226.33,-169.46"/>
<text text-anchor="middle" x="199.62" y="-194.68" font-family="Arial" font-size="10.00">c</text>
</g>
<!-- A+S&#45;&gt;A+R+S -->
<g id="edge7" class="edge">
<title>A+S&#45;&gt;A+R+S</title>
<path fill="none" stroke="black" d="M272.24,-405.1C282.88,-408.4 295.69,-412.36 307.75,-416.09"/>
<polygon fill="black" stroke="black" points="306.49,-419.37 317.08,-418.98 308.56,-412.68 306.49,-419.37"/>
<text text-anchor="middle" x="294.88" y="-414.75" font-family="Arial" font-size="10.00">a</text>
</g>
<!-- A+S&#45;&gt;A+B+S -->
<g id="edge5" class="edge">
<title>A+S&#45;&gt;A+B+S</title>
<path fill="none" stroke="black" d="M255.08,-415.15C264.77,-437.19 284.8,-474.1 315.5,-489.68 342.38,-503.33 357.68,-505.51 383.33,-489.68 422.17,-465.71 440.12,-412.77 447.83,-379.59"/>
<polygon fill="black" stroke="black" points="451.16,-380.74 449.83,-370.23 444.31,-379.28 451.16,-380.74"/>
<text text-anchor="middle" x="349.42" y="-503.25" font-family="Arial" font-size="10.00">b</text>
</g>
<!-- A+S&#45;&gt;A+C+S -->
<g id="edge6" class="edge">
<title>A+S&#45;&gt;A+C+S</title>
<path fill="none" stroke="black" d="M273.62,-393.04C302.55,-386.74 350.13,-373.22 383.33,-347.68 412.85,-324.97 432.44,-285.92 443.14,-259.23"/>
<polygon fill="black" stroke="black" points="446.35,-260.63 446.64,-250.04 439.81,-258.14 446.35,-260.63"/>
<text text-anchor="middle" x="349.42" y="-383.99" font-family="Arial" font-size="10.00">c</text>
</g>
<!-- B+S&#45;&gt;B+R+S -->
<g id="edge10" class="edge">
<title>B+S&#45;&gt;B+R+S</title>
<path fill="none" stroke="black" d="M274.57,-240.68C283.66,-240.68 294.12,-240.68 304.25,-240.68"/>
<polygon fill="black" stroke="black" points="303.95,-244.18 313.95,-240.68 303.95,-237.18 303.95,-244.18"/>
<text text-anchor="middle" x="294.88" y="-243.18" font-family="Arial" font-size="10.00">b</text>
</g>
<!-- B+S&#45;&gt;A+B+S -->
<g id="edge8" class="edge">
<title>B+S&#45;&gt;A+B+S</title>
<path fill="none" stroke="black" d="M261.85,-256.08C274.57,-269.67 294.67,-289.21 315.5,-301.68 346.99,-320.53 386.86,-333.73 415.55,-341.64"/>
<polygon fill="black" stroke="black" points="414.32,-344.94 424.88,-344.13 416.12,-338.17 414.32,-344.94"/>
<text text-anchor="middle" x="349.42" y="-333.82" font-family="Arial" font-size="10.00">a</text>
</g>
<!-- B+S&#45;&gt;B+C+S -->
<g id="edge9" class="edge">
<title>B+S&#45;&gt;B+C+S</title>
<path fill="none" stroke="black" d="M257.05,-223.68C268.1,-203.98 288.88,-171.91 315.5,-153.68 350.34,-129.82 372.63,-151.78 406.58,-126.68 421.31,-115.8 432.76,-98.75 440.62,-84.21"/>
<polygon fill="black" stroke="black" points="443.62,-86.04 445.01,-75.54 437.37,-82.88 443.62,-86.04"/>
<text text-anchor="middle" x="349.42" y="-156.18" font-family="Arial" font-size="10.00">c</text>
</g>
<!-- C+S&#45;&gt;C+R+S -->
<g id="edge13" class="edge">
<title>C+S&#45;&gt;C+R+S</title>
<path fill="none" stroke="black" d="M263.9,-129.46C278.94,-115.8 302,-94.85 320.24,-78.28"/>
<polygon fill="black" stroke="black" points="322.58,-80.88 327.63,-71.57 317.87,-75.7 322.58,-80.88"/>
<text text-anchor="middle" x="294.88" y="-106.13" font-family="Arial" font-size="10.00">c</text>
</g>
<!-- C+S&#45;&gt;A+C+S -->
<g id="edge11" class="edge">
<title>C+S&#45;&gt;A+C+S</title>
<path fill="none" stroke="black" d="M271.37,-152.42C298.42,-162.76 344.44,-180.72 383.33,-197.68 395.46,-202.97 408.6,-209.08 420.18,-214.61"/>
<polygon fill="black" stroke="black" points="418.4,-217.64 428.93,-218.81 421.43,-211.33 418.4,-217.64"/>
<text text-anchor="middle" x="349.42" y="-200.18" font-family="Arial" font-size="10.00">a</text>
</g>
<!-- C+S&#45;&gt;B+C+S -->
<g id="edge12" class="edge">
<title>C+S&#45;&gt;B+C+S</title>
<path fill="none" stroke="black" d="M251.15,-125.78C257.11,-95.6 273.85,-35.37 315.5,-9.68 341.16,6.15 354.5,-0.87 383.33,-9.68 399.69,-14.68 415.67,-24.94 428.2,-34.61"/>
<polygon fill="black" stroke="black" points="425.91,-37.25 435.88,-40.83 430.31,-31.82 425.91,-37.25"/>
<text text-anchor="middle" x="349.42" y="-12.18" font-family="Arial" font-size="10.00">b</text>
</g>
<!-- A+B+S&#45;&gt;A+B+R+S -->
<g id="edge18" class="edge">
<title>A+B+S&#45;&gt;A+B+R+S</title>
<path fill="none" stroke="black" d="M480.83,-358.31C495.23,-362.58 513.62,-368.03 530.42,-373"/>
<polygon fill="black" stroke="black" points="529.14,-376.27 539.72,-375.76 531.13,-369.56 529.14,-376.27"/>
<text text-anchor="middle" x="509.76" y="-371.18" font-family="Arial" font-size="10.00">a, b</text>
</g>
<!-- A+B+S&#45;&gt;A+B+C+S -->
<g id="edge17" class="edge">
<title>A+B+S&#45;&gt;A+B+C+S</title>
<path fill="none" stroke="black" d="M479.54,-341.96C521.01,-327.19 605.48,-297.11 655.93,-279.15"/>
<polygon fill="black" stroke="black" points="657.09,-282.45 665.34,-275.8 654.74,-275.86 657.09,-282.45"/>
<text text-anchor="middle" x="577.6" y="-324.28" font-family="Arial" font-size="10.00">c</text>
</g>
<!-- A+C+S&#45;&gt;A+C+R+S -->
<g id="edge20" class="edge">
<title>A+C+S&#45;&gt;A+C+R+S</title>
<path fill="none" stroke="black" d="M481.72,-223.66C495.58,-220.01 512.93,-215.44 528.99,-211.21"/>
<polygon fill="black" stroke="black" points="529.6,-214.67 538.38,-208.74 527.82,-207.9 529.6,-214.67"/>
<text text-anchor="middle" x="509.76" y="-220.05" font-family="Arial" font-size="10.00">a, c</text>
</g>
<!-- A+C+S&#45;&gt;A+B+C+S -->
<g id="edge19" class="edge">
<title>A+C+S&#45;&gt;A+B+C+S</title>
<path fill="none" stroke="black" d="M478.24,-241.18C494.14,-247.83 515.92,-255.87 536.01,-259.68 573.47,-266.79 616.71,-267.73 648.87,-267.06"/>
<polygon fill="black" stroke="black" points="648.77,-270.57 658.67,-266.8 648.58,-263.57 648.77,-270.57"/>
<text text-anchor="middle" x="577.6" y="-269.62" font-family="Arial" font-size="10.00">b</text>
</g>
<!-- B+C+S&#45;&gt;B+C+R+S -->
<g id="edge25" class="edge">
<title>B+C+S&#45;&gt;B+C+R+S</title>
<path fill="none" stroke="black" d="M479.06,-66.56C494.56,-72.93 515.17,-81.41 533.45,-88.93"/>
<polygon fill="black" stroke="black" points="531.91,-92.08 542.49,-92.65 534.57,-85.61 531.91,-92.08"/>
<text text-anchor="middle" x="509.76" y="-84.18" font-family="Arial" font-size="10.00">b, c</text>
</g>
<!-- B+C+S&#45;&gt;A+B+C+S -->
<g id="edge24" class="edge">
<title>B+C+S&#45;&gt;A+B+C+S</title>
<path fill="none" stroke="black" d="M481.47,-49.66C516.48,-42.02 578.53,-34.48 619.18,-63.68 674.82,-103.65 690.45,-189.35 694.85,-234.86"/>
<polygon fill="black" stroke="black" points="691.36,-235.11 695.67,-244.79 698.33,-234.53 691.36,-235.11"/>
<text text-anchor="middle" x="577.6" y="-66.18" font-family="Arial" font-size="10.00">a</text>
</g>
<!-- A+B+C+S&#45;&gt;A+B+C+R+S -->
<g id="edge31" class="edge">
<title>A+B+C+S&#45;&gt;A+B+C+R+S</title>
<path fill="none" stroke="black" d="M735.18,-264.68C750.78,-264.68 769.4,-264.68 786.9,-264.68"/>
<polygon fill="black" stroke="black" points="786.69,-268.18 796.69,-264.68 786.69,-261.18 786.69,-268.18"/>
<text text-anchor="middle" x="766.57" y="-267.18" font-family="Arial" font-size="10.00">a, b, c</text>
</g>
</g>
</svg>
